<svg xmlns="http://www.w3.org/2000/svg" viewBox="0 0 44 48" fill="currentColor"><path d="M15.818 32.182V48L0 32.182h15.818zm7.637 0V48h-3.819V32.182h3.819zm12.272 7.636L43.637 48h-15.82l7.91-8.182zm0-15.818 7.91 8.182h-15.82L35.728 24zM3.818 24c2.191 0 3.818 1.882 3.818 4.09 0 2.21-1.627 4.092-3.818 4.092zm12-24 15.818 15.818h-3.818v16.364h-4.363V15.818h-3.819v16.364h-3.818v-12H8.182v-4.364h7.636V0zm-12 15.818V24C1.628 24 0 22.118 0 19.91c0-2.21 1.627-4.092 3.818-4.092zM37.636 0v15.818h-3.818V0h3.818zM12 7.636v8.182L3.818 7.636H12zM24 0c2.19 0 3.818 1.882 3.818 4.09 0 2.21-1.627 4.092-3.818 4.092zM0 0h3.818v15.818H0V0z"/></svg>