<?xml version="1.0" encoding="utf-8"?>
<!-- Generator: Adobe Illustrator 24.1.2, SVG Export Plug-In . SVG Version: 6.00 Build 0)  -->
<svg version="1.1" id="Camada_1" xmlns="http://www.w3.org/2000/svg" xmlns:xlink="http://www.w3.org/1999/xlink" x="0px" y="0px"
	 viewBox="0 0 62 37" style="enable-background:new 0 0 62 37;" xml:space="preserve">
<style type="text/css">
	.st0{fill:#FFFFFF;}
</style>
<g>
	<rect x="54" y="10.9" class="st0" width="8" height="26.1"/>
	<path class="st0" d="M43,24.1c3.7-3.1,6-7.7,6-12.9h-8.1c0,4.9-4,8.9-8.9,8.9v0c0,0,0,0,0,0v0h-1.6v8.1H32c4.9,0,8.9,4,8.9,8.9H49
		C49,31.8,46.7,27.2,43,24.1z"/>
	<path class="st0" d="M8.1,24c0-2.6,2.2-4.8,4.8-4.8s4.8,2.2,4.8,4.8v13h8.1h0V24c0-7.1-5.8-12.9-12.9-12.9C5.8,11.1,0,16.9,0,24v13
		h8.1V24z"/>
	<path class="st0" d="M53.5,4.2c0,2.3,1.9,4.2,4.2,4.2c2.3,0,4.2-1.9,4.2-4.2C62,1.9,60.1,0,57.8,0C55.4,0,53.5,1.9,53.5,4.2z"/>
</g>
</svg>
